<?xml version="1.0" encoding="UTF-8" standalone="no"?>
<!-- Created with Inkscape (http://www.inkscape.org/) -->

<svg
   xmlns:dc="http://purl.org/dc/elements/1.1/"
   xmlns:cc="http://creativecommons.org/ns#"
   xmlns:rdf="http://www.w3.org/1999/02/22-rdf-syntax-ns#"
   xmlns:svg="http://www.w3.org/2000/svg"
   xmlns="http://www.w3.org/2000/svg"
   xmlns:sodipodi="http://sodipodi.sourceforge.net/DTD/sodipodi-0.dtd"
   xmlns:inkscape="http://www.inkscape.org/namespaces/inkscape"
   width="28mm"
   height="24mm"
   viewBox="0 0 28 24"
   version="1.1"
   id="svg8"
   inkscape:version="0.92.3 (2405546, 2018-03-11)"
   sodipodi:docname="noun_co2_1970676.svg">
  <sodipodi:namedview
     id="base"
     pagecolor="#ffffff"
     bordercolor="#666666"
     borderopacity="1.0"
     inkscape:pageopacity="0.0"
     inkscape:pageshadow="2"
     inkscape:zoom="3.959798"
     inkscape:cx="22.681504"
     inkscape:cy="3.9157429"
     inkscape:document-units="mm"
     inkscape:current-layer="g3989"
     showgrid="false"
     inkscape:snap-grids="true"
     inkscape:window-width="1920"
     inkscape:window-height="1027"
     inkscape:window-x="1912"
     inkscape:window-y="-8"
     inkscape:window-maximized="1"
     fit-margin-top="0"
     fit-margin-left="0"
     fit-margin-right="0"
     fit-margin-bottom="0" />
  <defs
     id="defs2" />
  <metadata
     id="metadata5">
    <rdf:RDF>
      <cc:Work
         rdf:about="">
        <dc:format>image/svg+xml</dc:format>
        <dc:type
           rdf:resource="http://purl.org/dc/dcmitype/StillImage" />
        <dc:title></dc:title>
      </cc:Work>
    </rdf:RDF>
  </metadata>
  <g
     transform="translate(-74.69754,-55.332954)"
     id="layer1"
     inkscape:groupmode="layer"
     inkscape:label="Layer 1">
    <rect
       y="58.071793"
       x="74.69754"
       height="21.261162"
       width="27.214285"
       id="rect3742"
       style="fill:none;stroke-width:0.23606978" />
    <rect
       y="58.071793"
       x="74.69754"
       height="21.261162"
       width="27.214287"
       id="rect3722"
       style="fill:none;stroke-width:0.26458332" />
    <rect
       y="47.553391"
       x="68.91069"
       height="31.60145"
       width="36.296124"
       id="rect3724"
       style="fill:none;stroke-width:0.33460021" />
    <g
       id="g3989">
      <g
         id="g4002"
         transform="matrix(0.90726085,0,0,0.87979499,33.89905,3.6262989)">
        <path
           style="stroke-width:0.26458332"
           id="path3955"
           d="m 62.934419,65.724122 c -0.962025,0.962025 -0.962025,2.527035 0,3.48906 0.481012,0.481013 1.112837,0.721519 1.744397,0.721519 0.631561,0 1.263386,-0.240506 1.744398,-0.721519 0.962025,-0.962025 0.962025,-2.5273 0,-3.48906 -0.96176,-0.962025 -2.52677,-0.962025 -3.488795,0 z m 2.927879,2.927879 c -0.652463,0.652462 -1.714236,0.652198 -2.366434,0 -0.652462,-0.652463 -0.652462,-1.714235 0,-2.366698 0.326232,-0.326231 0.754857,-0.489214 1.183217,-0.489214 0.42836,0 0.856985,0.162983 1.183217,0.489214 0.652198,0.652463 0.652198,1.713971 0,2.366698 z"
           inkscape:connector-curvature="0"
           transform="translate(2.7083337e-7,1.2083333e-6)" />
        <path
           style="stroke-width:0.26458332"
           id="path3957"
           d="m 60.327479,66.983803 c -0.101865,0.06244 -2.514865,1.57136 -3.969808,5.282142 -0.0799,0.203993 0.02064,0.434445 0.224631,0.51435 0.04763,0.01852 0.09657,0.02752 0.144727,0.02752 0.158485,0 0.30824,-0.09551 0.369623,-0.252148 1.351756,-3.44752 3.623204,-4.881033 3.645958,-4.895056 0.186531,-0.114564 0.245004,-0.35851 0.130704,-0.545306 -0.114829,-0.187325 -0.359039,-0.246063 -0.545835,-0.131498 z"
           inkscape:connector-curvature="0"
           transform="translate(2.7083337e-7,1.2083333e-6)" />
        <g
           id="g3993">
          <path
             style="stroke-width:0.26458332"
             id="path3953"
             d="m 70.752856,63.355836 c -0.02619,-0.211137 -0.05768,-0.421745 -0.09525,-0.631295 -0.01455,-0.08149 -0.0299,-0.162984 -0.04657,-0.243417 -0.0058,-0.0291 -0.01085,-0.059 -0.01588,-0.08837 -0.03466,-0.204523 -0.09287,-0.546894 -0.448998,-0.728927 -0.195262,-0.100012 -0.395287,-0.127 -0.571764,-0.150812 -0.04895,-0.0066 -0.09737,-0.01297 -0.143934,-0.02143 -0.287337,-0.05186 -0.587375,-0.09393 -0.891645,-0.125677 -0.862013,-0.09022 -1.72138,-0.09313 -2.554023,-0.0095 -0.988484,0.09922 -1.929077,0.32094 -2.795588,0.659342 -3.060171,1.1938 -5.426339,4.192852 -5.962914,4.913577 l -1.645444,0.130704 c -0.135202,0.01085 -0.255587,0.08969 -0.319087,0.20955 l -3.17553,5.979054 c -0.07038,0.132556 -0.06006,0.293688 0.02699,0.41619 0.08731,0.122237 0.235215,0.185208 0.384175,0.162189 0.388144,-0.06006 1.402292,-0.115887 2.15265,0.184944 l -0.110067,0.110067 c -0.154781,0.155046 -0.154781,0.4064 0,0.561181 l 2.92444,2.92444 c 0.155046,0.155045 0.406135,0.155045 0.561181,0 l 0.111125,-0.111125 c 0.367242,0.903816 0.186002,2.139685 0.183621,2.154237 -0.02249,0.148431 0.04022,0.296862 0.162719,0.383646 0.06853,0.04868 0.14896,0.07329 0.229923,0.07329 0.0635,0 0.127264,-0.01534 0.185737,-0.0463 l 5.979054,-3.175529 c 0.119856,-0.0635 0.198702,-0.183885 0.20955,-0.319087 l 0.130969,-1.645444 c 0.720725,-0.53631 3.719777,-2.902479 4.913841,-5.96265 0.375709,-0.962819 0.606955,-2.013215 0.687388,-3.122348 0.05927,-0.816504 0.03704,-1.651264 -0.06668,-2.480469 z m -0.724958,2.423055 c -0.07461,1.029758 -0.288396,2.002366 -0.635265,2.891102 -1.2446,3.189816 -4.748742,5.688806 -4.784196,5.713412 -0.09631,0.068 -0.157691,0.175419 -0.166952,0.292894 l -0.128058,1.610254 -5.15329,2.737115 c 0.01032,-0.687917 -0.08202,-1.704711 -0.617537,-2.416175 -0.06906,-0.09181 -0.174625,-0.148961 -0.28919,-0.157163 -0.0093,-7.94e-4 -0.01852,-0.0011 -0.02778,-0.0011 -0.104775,0 -0.205846,0.04154 -0.280723,0.116152 l -0.19976,0.19976 -1.117071,-1.117071 c 0,0 0,0 0,0 l -1.246188,-1.245923 0.200025,-0.200025 c 0.08123,-0.08123 0.123296,-0.193675 0.115094,-0.308504 -0.0079,-0.114564 -0.06535,-0.220133 -0.157162,-0.289189 -0.711465,-0.535782 -1.729846,-0.626004 -2.416175,-0.617538 l 2.737114,-5.153289 1.610254,-0.128059 c 0.11774,-0.0093 0.225161,-0.07064 0.293159,-0.166952 0.02487,-0.03519 2.518304,-3.537214 5.713677,-4.784195 0.799306,-0.312209 1.669521,-0.516996 2.586302,-0.608807 0.779727,-0.07805 1.584589,-0.07514 2.392362,0.009 0.284692,0.02963 0.56515,0.06932 0.833438,0.117475 0.05794,0.01032 0.117739,0.01852 0.178064,0.02672 0.124354,0.01667 0.241829,0.03281 0.305859,0.06006 0.01429,0.02355 0.02884,0.109538 0.03863,0.166159 0.0066,0.03863 0.01323,0.07699 0.02117,0.115623 0.01535,0.07408 0.02937,0.148696 0.04286,0.223573 0.03493,0.195791 0.06456,0.392377 0.08917,0.589756 0.09684,0.777875 0.117739,1.559983 0.06218,2.324894 z"
             inkscape:connector-curvature="0" />
          <path
             style="stroke-width:0.26458332"
             id="path3959"
             d="m 55.020202,77.67588 c -0.0077,0.567002 -0.139965,1.168135 -0.437885,1.65444 -0.455613,0.744272 -1.344613,1.16205 -2.16244,1.366572 -0.366183,0.09155 -0.759354,0.176742 -1.137179,0.11774 -0.0061,-7.94e-4 -0.03096,-0.0095 -0.03651,-0.0066 0.284427,-0.14896 0.510382,-0.691091 0.754327,-1.043516 0.243946,-0.352425 0.645848,-0.645848 0.645848,-0.645848 -0.447145,-0.167217 -0.892175,0.386292 -0.892175,0.386292 -0.04075,-0.352425 0.189707,-0.962025 0.189707,-0.962025 0.392906,-0.894292 0.85381,-1.097492 1.273704,-1.341438 0.420158,-0.243946 1.029758,-0.352425 1.029758,-0.352425 -0.270669,-0.149225 -0.622829,-0.107685 -0.918369,-0.08758 -0.325966,0.02222 -0.650081,0.06588 -0.971814,0.121444 -0.928952,0.160073 -1.707356,0.830791 -2.051579,1.692539 -0.169069,0.423069 -0.233627,0.881857 -0.423863,1.294607 -0.19341,0.419893 -0.460639,0.772054 -0.719137,1.152525 -0.124884,0.18362 -0.24183,0.37465 -0.322527,0.582347 -0.07541,0.194469 -0.03096,0.43233 -0.134673,0.61013 0.09498,-0.162719 0.460639,-0.352161 0.813329,-0.433917 0.352689,-0.08176 0.618596,0.131498 0.618596,0.131498 0,0 -0.598488,0.241564 -1.052777,0.817298 -0.454025,0.575733 -0.567796,1.356254 -0.567796,1.356254 0.351102,-0.598752 1.099079,-0.780256 1.721379,-0.953029 0.695589,-0.193146 1.400969,-0.348721 2.097881,-0.53684 0.696383,-0.187589 1.361281,-0.543983 1.86399,-1.065741 0.718079,-0.745332 1.132416,-1.740165 1.128712,-2.719652 0,0 -0.02434,-0.701675 -0.308769,-1.189567 7.94e-4,0.01826 5.3e-4,0.03625 2.65e-4,0.0545 z"
             inkscape:connector-curvature="0" />
        </g>
      </g>
    </g>
  </g>
</svg>
