<?xml version="1.0" encoding="UTF-8" standalone="no"?>
<!-- Created with Inkscape (http://www.inkscape.org/) -->

<svg
   xmlns:dc="http://purl.org/dc/elements/1.1/"
   xmlns:cc="http://creativecommons.org/ns#"
   xmlns:rdf="http://www.w3.org/1999/02/22-rdf-syntax-ns#"
   xmlns:svg="http://www.w3.org/2000/svg"
   xmlns="http://www.w3.org/2000/svg"
   xmlns:sodipodi="http://sodipodi.sourceforge.net/DTD/sodipodi-0.dtd"
   xmlns:inkscape="http://www.inkscape.org/namespaces/inkscape"
   width="28mm"
   height="24mm"
   viewBox="0 0 28 24"
   version="1.1"
   id="svg8"
   inkscape:version="0.92.3 (2405546, 2018-03-11)"
   sodipodi:docname="noun_co2_1970676.svg">
  <sodipodi:namedview
     id="base"
     pagecolor="#ffffff"
     bordercolor="#666666"
     borderopacity="1.0"
     inkscape:pageopacity="0.0"
     inkscape:pageshadow="2"
     inkscape:zoom="3.959798"
     inkscape:cx="22.681504"
     inkscape:cy="3.9157429"
     inkscape:document-units="mm"
     inkscape:current-layer="layer1"
     showgrid="false"
     inkscape:snap-grids="true"
     inkscape:window-width="1920"
     inkscape:window-height="1027"
     inkscape:window-x="1912"
     inkscape:window-y="-8"
     inkscape:window-maximized="1"
     fit-margin-top="0"
     fit-margin-left="0"
     fit-margin-right="0"
     fit-margin-bottom="0" />
  <defs
     id="defs2" />
  <metadata
     id="metadata5">
    <rdf:RDF>
      <cc:Work
         rdf:about="">
        <dc:format>image/svg+xml</dc:format>
        <dc:type
           rdf:resource="http://purl.org/dc/dcmitype/StillImage" />
        <dc:title></dc:title>
      </cc:Work>
    </rdf:RDF>
  </metadata>
  <g
     transform="translate(-74.69754,-55.332954)"
     id="layer1"
     inkscape:groupmode="layer"
     inkscape:label="Layer 1">
    <rect
       y="58.071793"
       x="74.69754"
       height="21.261162"
       width="27.214285"
       id="rect3742"
       style="fill:none;stroke-width:0.23606978" />
    <rect
       y="58.071793"
       x="74.69754"
       height="21.261162"
       width="27.214287"
       id="rect3722"
       style="fill:none;stroke-width:0.26458332" />
    <rect
       y="47.553391"
       x="68.91069"
       height="31.60145"
       width="36.296124"
       id="rect3724"
       style="fill:none;stroke-width:0.33460021" />
    <path
       style="stroke-width:0.47559899;opacity:1"
       inkscape:connector-curvature="0"
       d="m 89.137391,66.585998 c -0.471995,0 -0.896792,0.191692 -1.227188,0.527153 -0.330397,0.335461 -0.519196,0.766768 -0.519196,1.293921 0,0.47923 0.188799,0.910537 0.519196,1.29392 0.330396,0.335461 0.755193,0.527153 1.227188,0.527153 0.471996,0 0.896792,-0.191692 1.227189,-0.527153 0.330397,-0.33546 0.519195,-0.766767 0.519195,-1.29392 0,-0.47923 -0.188798,-0.910537 -0.519195,-1.293921 -0.330397,-0.383384 -0.707994,-0.527153 -1.227189,-0.527153 z"
       id="path3802" />
    <g
       id="g3859">
      <path
         id="path3800"
         d="m 97.586113,63.231389 c -0.235998,-2.012765 -1.887983,-3.5463 -3.917564,-3.5463 -0.613594,0 -1.179989,0.143769 -1.651985,0.383383 -0.755193,-1.29392 -2.07678,-2.108611 -3.681565,-2.108611 -1.463187,0 -2.737575,0.766768 -3.492768,1.868997 1.557586,0.09585 3.020772,0.958459 3.917564,2.25238 0.566394,-0.191692 1.132789,-0.287538 1.699184,-0.287538 2.407178,0 4.436759,1.77315 4.861555,4.1693 1.651984,0.81469 2.737574,2.539918 2.737574,4.456837 1.179989,-0.670922 1.935182,-1.964842 1.935182,-3.450455 0,-1.677304 -0.99119,-3.114994 -2.407177,-3.737993 z"
         inkscape:connector-curvature="0"
         style="stroke-width:0.47559899;opacity:1" />
      <path
         id="path3804"
         d="m 94.895738,66.250538 c -0.235998,-2.252381 -2.123981,-4.025531 -4.38956,-4.025531 -0.660793,0 -1.321587,0.143769 -1.887982,0.431307 -0.849592,-1.43769 -2.359978,-2.39615 -4.106362,-2.39615 -2.643175,0 -4.814355,2.204458 -4.814355,4.840222 0,0.143769 0,0.287538 0,0.431307 -1.415987,0.958459 -2.359978,2.587841 -2.359978,4.456837 0,2.875379 2.312778,5.223606 5.144752,5.223606 0.613594,0 1.227188,-0.09585 1.793583,-0.335461 0.802393,0.95846 2.029581,1.581458 3.398369,1.581458 1.510386,0 2.879173,-0.766767 3.681566,-1.964842 0.566394,0.239615 1.179989,0.383384 1.793583,0.383384 2.454377,0 4.436759,-2.012766 4.436759,-4.504761 0,-1.821073 -1.13279,-3.450455 -2.690375,-4.121376 z m -12.035889,3.354609 c 0.330397,0.33546 0.707994,0.527152 1.179989,0.527152 0.283198,0 0.519196,-0.04792 0.755193,-0.143769 0.188799,-0.09585 0.424796,-0.239615 0.660794,-0.479229 l 0.519195,0.575075 c -0.519195,0.575076 -1.132789,0.862614 -1.887982,0.862614 -0.755193,0 -1.368787,-0.239615 -1.840783,-0.718845 -0.471996,-0.47923 -0.755193,-1.102228 -0.755193,-1.821073 0,-0.718845 0.235998,-1.341844 0.755193,-1.868997 0.519195,-0.479229 1.13279,-0.718844 1.887983,-0.718844 0.755193,0 1.415986,0.287538 1.887982,0.862613 l -0.519195,0.575076 c -0.235998,-0.239615 -0.471996,-0.383384 -0.660794,-0.47923 -0.188798,-0.09585 -0.471996,-0.143769 -0.755193,-0.143769 -0.471996,0 -0.896792,0.143769 -1.227189,0.47923 -0.330397,0.335461 -0.519195,0.718845 -0.519195,1.245998 0.0472,0.527153 0.188798,0.910537 0.519195,1.245998 z m 8.118325,0.622998 c -0.471996,0.47923 -1.08559,0.718845 -1.840783,0.718845 -0.707993,0 -1.321588,-0.239615 -1.840783,-0.718845 -0.519195,-0.47923 -0.755193,-1.102228 -0.755193,-1.821073 0,-0.718845 0.235998,-1.341844 0.755193,-1.821074 0.471996,-0.479229 1.08559,-0.718844 1.840783,-0.718844 0.707994,0 1.321588,0.239615 1.840783,0.718844 0.519195,0.47923 0.755193,1.102229 0.755193,1.821074 0,0.718845 -0.235998,1.29392 -0.755193,1.821073 z m 2.595976,3.019148 H 91.544569 V 72.815986 L 92.44136,71.90545 c 0.188799,-0.191692 0.330397,-0.383384 0.424797,-0.47923 0.0944,-0.09585 0.141598,-0.239615 0.141598,-0.335461 0,-0.09585 -0.0472,-0.239615 -0.141598,-0.287538 -0.0944,-0.09585 -0.188799,-0.143769 -0.330397,-0.143769 -0.235998,0 -0.424796,0.143769 -0.613595,0.383384 l -0.377596,-0.239615 c 0.141598,-0.191692 0.283197,-0.335461 0.424796,-0.431307 0.141599,-0.09585 0.377596,-0.143769 0.613594,-0.143769 0.235998,0 0.471996,0.09585 0.660794,0.239615 0.188798,0.143769 0.283197,0.383384 0.283197,0.622999 0,0.143769 -0.0472,0.287538 -0.0944,0.431307 -0.0944,0.143769 -0.235998,0.335461 -0.424796,0.527153 l -0.707993,0.718845 h 1.321588 v 0.479229 z"
         inkscape:connector-curvature="0"
         style="stroke-width:0.47559899;opacity:1" />
    </g>
  </g>
</svg>
