<?xml version="1.0" encoding="UTF-8" standalone="no"?>
<!-- Created with Inkscape (http://www.inkscape.org/) -->

<svg
   xmlns:dc="http://purl.org/dc/elements/1.1/"
   xmlns:cc="http://creativecommons.org/ns#"
   xmlns:rdf="http://www.w3.org/1999/02/22-rdf-syntax-ns#"
   xmlns:svg="http://www.w3.org/2000/svg"
   xmlns="http://www.w3.org/2000/svg"
   xmlns:sodipodi="http://sodipodi.sourceforge.net/DTD/sodipodi-0.dtd"
   xmlns:inkscape="http://www.inkscape.org/namespaces/inkscape"
   width="28mm"
   height="24mm"
   viewBox="0 0 28 24"
   version="1.1"
   id="svg8"
   inkscape:version="0.92.3 (2405546, 2018-03-11)"
   sodipodi:docname="noun_co2_1970676.svg">
  <sodipodi:namedview
     id="base"
     pagecolor="#ffffff"
     bordercolor="#666666"
     borderopacity="1.0"
     inkscape:pageopacity="0.0"
     inkscape:pageshadow="2"
     inkscape:zoom="3.959798"
     inkscape:cx="22.681504"
     inkscape:cy="3.9157429"
     inkscape:document-units="mm"
     inkscape:current-layer="layer1"
     showgrid="false"
     inkscape:snap-grids="true"
     inkscape:window-width="1920"
     inkscape:window-height="1027"
     inkscape:window-x="1912"
     inkscape:window-y="-8"
     inkscape:window-maximized="1"
     fit-margin-top="0"
     fit-margin-left="0"
     fit-margin-right="0"
     fit-margin-bottom="0" />
  <defs
     id="defs2" />
  <metadata
     id="metadata5">
    <rdf:RDF>
      <cc:Work
         rdf:about="">
        <dc:format>image/svg+xml</dc:format>
        <dc:type
           rdf:resource="http://purl.org/dc/dcmitype/StillImage" />
        <dc:title></dc:title>
      </cc:Work>
    </rdf:RDF>
  </metadata>
  <g
     transform="translate(-74.69754,-55.332954)"
     id="layer1"
     inkscape:groupmode="layer"
     inkscape:label="Layer 1">
    <rect
       y="58.071793"
       x="74.69754"
       height="21.261162"
       width="27.214285"
       id="rect3742"
       style="fill:none;stroke-width:0.23606978" />
    <rect
       y="58.071793"
       x="74.69754"
       height="21.261162"
       width="27.214287"
       id="rect3722"
       style="fill:none;stroke-width:0.26458332" />
    <rect
       y="47.553391"
       x="68.91069"
       height="31.60145"
       width="36.296124"
       id="rect3724"
       style="fill:none;stroke-width:0.33460021" />
    <path
       inkscape:connector-curvature="0"
       d="m 101.6353,69.870114 c -1.23772,-3.987536 -4.208194,-7.049029 -7.968187,-8.505825 l 1.056746,-3.220508 -0.0016,-7.94e-4 c 5.29e-4,-0.0019 0.0034,-0.0024 0.0037,-0.0037 0.02223,-0.05398 -0.0029,-0.1143 -0.05688,-0.136261 -0.05292,-0.02222 -0.112448,0.01879 -0.134673,0.07303 0,0 0,0 -0.0011,0.0082 l -1.519238,3.044031 c -1.381919,-0.456406 -2.858294,-0.70141 -4.386792,-0.70141 -5.979054,0 -11.19452,3.754702 -12.978341,9.343496 -0.05292,0.166687 0.0291,0.346869 0.1905,0.415396 l 4.420129,1.883833 c 0.149754,0.06456 0.323585,0.0127 0.414338,-0.122238 1.771914,-2.626518 4.745037,-4.194439 7.95311,-4.194439 0.354012,0 0.704056,0.02249 1.05066,0.0598 l -2.042848,4.093633 c -0.257175,0.626269 0.04075,1.341967 0.66728,1.599406 0.625739,0.25744 1.342495,-0.04101 1.600199,-0.667544 l 1.532467,-4.670424 c 2.113756,0.636322 3.960019,1.981729 5.199592,3.862387 0.06456,0.0979 0.172243,0.1524 0.283368,0.1524 0.04471,0 0.08996,-0.0087 0.13335,-0.02725 l 4.3934,-1.872721 c 0.16008,-0.06773 0.24263,-0.246062 0.19077,-0.412485 z M 88.627329,67.074262 c -1.358106,0 -2.675466,0.2667 -3.891227,0.75856 L 82.0736,62.840664 c 1.934898,-1.110721 4.180417,-1.734609 6.553729,-1.734609 1.419755,0 2.792677,0.221986 4.08014,0.636588 L 90.000252,67.16713 C 89.548873,67.1076 89.090879,67.07426 88.627329,67.07426 Z m 8.414279,4.347633 C 95.720015,69.533564 93.815544,68.17731 91.647284,67.520878 l 1.807897,-5.510477 c 3.462867,1.353079 6.215322,4.139407 7.437699,7.770019 z"
       id="path3931"
       style="stroke-width:0.26458332" />
  </g>
</svg>
