<?xml version="1.0" encoding="UTF-8" standalone="no"?>
<!-- Created with Inkscape (http://www.inkscape.org/) -->

<svg
   xmlns:dc="http://purl.org/dc/elements/1.1/"
   xmlns:cc="http://creativecommons.org/ns#"
   xmlns:rdf="http://www.w3.org/1999/02/22-rdf-syntax-ns#"
   xmlns:svg="http://www.w3.org/2000/svg"
   xmlns="http://www.w3.org/2000/svg"
   xmlns:sodipodi="http://sodipodi.sourceforge.net/DTD/sodipodi-0.dtd"
   xmlns:inkscape="http://www.inkscape.org/namespaces/inkscape"
   width="28mm"
   height="24mm"
   viewBox="0 0 28 24"
   version="1.1"
   id="svg8"
   inkscape:version="0.92.3 (2405546, 2018-03-11)"
   sodipodi:docname="performance.svg">
  <defs
     id="defs2" />
  <sodipodi:namedview
     id="base"
     pagecolor="#ffffff"
     bordercolor="#666666"
     borderopacity="1.0"
     inkscape:pageopacity="0.0"
     inkscape:pageshadow="2"
     inkscape:zoom="3.959798"
     inkscape:cx="59.678341"
     inkscape:cy="3.9157429"
     inkscape:document-units="mm"
     inkscape:current-layer="layer1"
     showgrid="false"
     inkscape:snap-grids="true"
     inkscape:window-width="1920"
     inkscape:window-height="1027"
     inkscape:window-x="1912"
     inkscape:window-y="-8"
     inkscape:window-maximized="1"
     fit-margin-top="0"
     fit-margin-left="0"
     fit-margin-right="0"
     fit-margin-bottom="0" />
  <metadata
     id="metadata5">
    <rdf:RDF>
      <cc:Work
         rdf:about="">
        <dc:format>image/svg+xml</dc:format>
        <dc:type
           rdf:resource="http://purl.org/dc/dcmitype/StillImage" />
        <dc:title></dc:title>
      </cc:Work>
    </rdf:RDF>
  </metadata>
  <g
     inkscape:label="Layer 1"
     inkscape:groupmode="layer"
     id="layer1"
     transform="translate(-74.69754,-55.332954)">
    <rect
       style="fill:none;stroke-width:0.23606978"
       id="rect3742"
       width="27.214285"
       height="21.261162"
       x="74.69754"
       y="58.071793" />
    <rect
       style="fill:none;stroke-width:0.26458332"
       id="rect3722"
       width="27.214287"
       height="21.261162"
       x="74.69754"
       y="58.071793" />
    <g
       id="layer1-4"
       inkscape:label="Layer 1"
       transform="translate(0.52916667,-1.5875)">
      <g
         transform="matrix(0.26458333,0,0,0.26458333,75.523938,58.23427)"
         id="g3717">
        <path
           id="path3713"
           d="M 15.9753,57.7949 9.036,59.6485 C 8.941,59.2565 8.8512,58.8617 8.7668,58.4646 8.2186,55.8853 7.9188,53.3109 7.8515,50.7665 h 7.1932 C 15.0341,50.4123 15.0286,50.0568 15.0286,49.7 c 0,-0.212 0.0021,-0.4234 0.0059,-0.6345 H 7.841 c 0.0446,-3.1549 0.4451,-6.2547 1.17,-9.251 l 6.9416,1.861 c 0.0815,-0.3449 0.1683,-0.6899 0.2607,-1.0345 0.0549,-0.2048 0.1117,-0.4086 0.17,-0.6115 L 9.4445,38.169 c 0.8585,-3.0097 2.0472,-5.9029 3.533,-8.6285 L 19.2,33.1359 c 0.168,-0.312 0.3411,-0.6226 0.5196,-0.9315 0.106,-0.1835 0.2137,-0.3656 0.3225,-0.5464 l -6.2206,-3.594 c 1.5977,-2.6701 3.488,-5.1625 5.6375,-7.4255 l 5.0795,5.0841 c 0.2431,-0.2578 0.4907,-0.513 0.7431,-0.7652 0.15,-0.1498 0.3011,-0.2978 0.4531,-0.4443 l -5.0792,-5.0846 c 2.219,-2.1551 4.6856,-4.0764 7.368,-5.7145 l 3.5902,6.2278 c 0.3016,-0.1862 0.6069,-0.3685 0.9161,-0.5468 0.1837,-0.1059 0.368,-0.2097 0.5528,-0.3119 L 29.4935,12.857 c 2.6795,-1.4902 5.5566,-2.7046 8.602,-3.5975 l 1.8538,6.9415 c 0.3395,-0.1017 0.6816,-0.1988 1.0263,-0.2908 0.2048,-0.0547 0.4097,-0.1073 0.6146,-0.1581 L 39.737,8.8135 c 0.4953,-0.124 0.9949,-0.2396 1.4984,-0.3467 2.6158,-0.556 5.2265,-0.8562 7.8061,-0.9178 v 7.1925 C 49.36,14.7329 49.6795,14.7286 50,14.7286 c 0.2481,0 0.4956,0.0023 0.7425,0.0075 V 7.543 c 3.1546,0.0527 6.2533,0.4608 9.248,1.1935 l -1.8608,6.9409 c 0.3099,0.0742 0.6197,0.1529 0.9293,0.2359 0.2397,0.0642 0.4783,0.1306 0.7155,0.1995 L 61.635,9.1745 c 3.0072,0.8662 5.8971,2.0622 8.619,3.555 l -3.5948,6.2217 c 0.2801,0.1519 0.5589,0.308 0.8364,0.4684 0.2148,0.1241 0.428,0.25 0.6392,0.3779 L 71.729,13.577 c 2.666,1.6043 5.1533,3.501 7.411,5.6565 l -5.084,5.0791 c 0.2312,0.2192 0.46,0.4423 0.6866,0.669 0.1754,0.1756 0.3487,0.3523 0.5195,0.5306 l 5.0844,-5.0792 c 2.1493,2.2243 4.0647,4.6957 5.696,7.3825 l -6.2275,3.5901 c 0.1665,0.2717 0.3299,0.5465 0.49,0.8242 0.1239,0.215 0.2455,0.4307 0.3644,0.6472 l 6.2266,-3.5895 c 1.4831,2.683 2.6897,5.5635 3.575,8.6115 l -6.941,1.8538 c 0.0905,0.3055 0.1771,0.6131 0.2598,0.9228 0.064,0.2398 0.1257,0.4795 0.1844,0.7194 l 6.9383,-1.853 c 0.1141,0.461 0.2212,0.9254 0.3207,1.3934 0.5793,2.7253 0.8809,5.4452 0.9243,8.1301 h -7.192 c 0.0038,0.2111 0.0059,0.4225 0.0059,0.6345 0,0.3568 -0.0055,0.7123 -0.0161,1.0665 h 7.1952 c -0.0771,3.1534 -0.5091,6.2492 -1.265,9.239 l -6.9401,-1.861 c -0.051,0.2049 -0.1038,0.4098 -0.1587,0.6145 -0.0924,0.3447 -0.1898,0.6868 -0.2918,1.0262 l 6.9401,1.8608 c -0.8891,3 -2.1071,5.881 -3.621,8.592 l -6.2212,-3.5947 c -0.1024,0.1846 -0.2064,0.3688 -0.3124,0.5523 -0.1751,0.3031 -0.3542,0.6026 -0.5369,0.8984 l 9.4695,5.4625 C 95.0868,63.9056 97.4309,52.08 94.8964,40.1567 89.6257,15.3607 65.2526,-0.4671 40.4567,4.8036 15.6607,10.0743 -0.1671,34.4474 5.1036,59.2433 c 1.0788,5.0754 2.9581,9.7753 5.4774,13.9952 l 9.4315,-5.528 c -0.1072,-0.1787 -0.213,-0.359 -0.3175,-0.5403 -0.1601,-0.2778 -0.316,-0.5568 -0.4677,-0.837 l -6.2268,3.5898 c -1.4689,-2.6901 -2.6611,-5.5764 -3.531,-8.6295 l 6.9395,-1.8536 c -0.0687,-0.2372 -0.1348,-0.4758 -0.1988,-0.7155 -0.0827,-0.3097 -0.161,-0.6195 -0.2349,-0.9295 z"
           inkscape:connector-curvature="0"
           style="fill:#000000" />
        <path
           id="path3715"
           d="m 47.2225,48.3434 c 0.9458,-1.5409 2.9616,-2.0234 4.5026,-1.0776 1.5409,0.9457 2.0234,2.9615 1.0776,4.5025 -0.9458,1.5409 -2.9616,2.0234 -4.5025,1.0776 -1.541,-0.9457 -2.0234,-2.9616 -1.0777,-4.5025 z m -1.6924,-1.0175 c -1.5132,2.4655 -0.7413,5.6908 1.7242,7.2041 3.6846,2.2614 36.7532,15.887 36.7532,15.887 0,0 -27.5888,-22.5539 -31.2734,-24.8153 -2.4655,-1.5133 -5.6908,-0.7413 -7.204,1.7242 z"
           inkscape:connector-curvature="0"
           style="fill:#000000" />
      </g>
      <rect
         y="58.071793"
         x="74.69754"
         height="21.261162"
         width="27.214285"
         id="rect3742-3"
         style="fill:none;stroke-width:0.23606978" />
      <rect
         y="58.071793"
         x="74.69754"
         height="21.261162"
         width="27.214287"
         id="rect3722-8"
         style="fill:none;stroke-width:0.26458332" />
    </g>
  </g>
</svg>
